<?xml version="1.0" encoding="UTF-8" standalone="no"?>
<svg
   xmlns:svg="http://www.w3.org/2000/svg"
   xmlns="http://www.w3.org/2000/svg"
   xmlns:sodipodi="http://sodipodi.sourceforge.net/DTD/sodipodi-0.dtd"
   xmlns:inkscape="http://www.inkscape.org/namespaces/inkscape"
   inkscape:version="1.1-dev (9e0ac956c9, 2020-04-30, custom)"
   inkscape:export-ydpi="96"
   inkscape:export-xdpi="96"
   inkscape:export-filename="/home/doctormo/Desktop/gallery.png"
   sodipodi:docname="icon_gallery.svg"
   id="svg6"
   height="32"
   width="32"
   viewBox="0 0 32 32"
   version="1.1">
  <defs
     id="defs10" />
  <sodipodi:namedview
     inkscape:current-layer="svg6"
     inkscape:window-maximized="1"
     inkscape:window-y="20"
     inkscape:window-x="67"
     inkscape:cy="31.581311"
     inkscape:cx="20.698065"
     inkscape:zoom="1"
     showgrid="false"
     id="namedview8"
     inkscape:window-height="852"
     inkscape:window-width="1533"
     inkscape:pageshadow="2"
     inkscape:pageopacity="0"
     guidetolerance="10"
     gridtolerance="10"
     objecttolerance="10"
     borderopacity="1"
     bordercolor="#666666"
     pagecolor="#535353" />
  <circle
     id="circle2"
     style="fill:none;stroke:#ffffff;stroke-width:2.46154"
     r="14.769231"
     cy="16"
     cx="16" />
  <g
     style="stroke-width:0.628968"
     transform="matrix(1.5899073,0,0,1.5899073,-11.948642,-8.3371222)"
     id="g1026">
    <path
       class="success"
       inkscape:connector-curvature="0"
       id="path3292"
       d="m 17.995358,19.284655 c -0.450501,2.214459 -3.240277,2.567265 -5.123661,2.165614 1.747692,-0.439645 1.926799,-3.51165 4.02728,-3.256561 z"
       inkscape:label="tip"
       style="fill:#ffffff;stroke-width:0.628968" />
    <path
       sodipodi:nodetypes="ccccc"
       inkscape:connector-curvature="0"
       d="m 18.720638,15.570287 -0.889938,1.844427 1.032005,1.032005 1.844431,-0.889926 z"
       id="polygon3296"
       inkscape:label="mid"
       style="fill:#ffffff;stroke-width:0.628968" />
    <path
       sodipodi:nodetypes="cccccccc"
       inkscape:connector-curvature="0"
       id="path3290"
       d="M 27.297539,9.5149738 21.555875,16.634364 19.55852,14.637026 26.55396,8.7768331 c 0.20626,-0.1791078 0.515618,-0.1628328 0.711004,0.027194 v 0 c 0.189957,0.1953994 0.206261,0.5047609 0.0326,0.7110088 z"
       inkscape:label="top"
       style="fill:#ffffff;stroke-width:0.628968" />
    <path
       class="success"
       sodipodi:nodetypes="cscsc"
       inkscape:connector-curvature="0"
       id="path3294"
       d="m 15.006079,7.5603648 c 5.256335,0.2160944 4.917434,7.1066202 0.607322,6.7529832 -2.152807,-0.176634 -1.831013,1.912591 -1.831013,1.912591 -1.300745,-1.024283 -0.688592,-3.792553 1.735833,-3.589511 3.041409,0.254711 2.345237,-4.5852196 -0.512142,-5.0760632 z"
       inkscape:label="swush"
       style="fill:#ffffff;stroke-width:0.628968" />
  </g>
</svg>
